<svg xmlns="http://www.w3.org/2000/svg" version="1.1" viewBox="0.00 0.00 500.00 500.00">
<g stroke-width="2.00" fill="none" stroke-linecap="butt">
<path stroke="#052039" vector-effect="non-scaling-stroke" d="
  M 409.52 241.14
  Q 409.07 257.01 406.71 272.37
  Q 405.70 278.95 403.82 285.47
  Q 401.66 292.99 399.49 298.27
  Q 396.42 305.74 390.25 317.14
  Q 384.30 328.14 374.69 338.97
  C 371.47 342.60 367.79 345.73 364.42 349.22
  Q 360.81 352.95 356.51 356.32
  Q 330.93 376.34 298.72 383.28
  C 285.47 386.14 270.62 386.40 257.08 385.67
  Q 247.64 385.17 238.13 383.07
  Q 220.13 379.11 203.65 370.82
  Q 199.07 368.51 195.24 365.87
  A 1.13 1.13 0.0 0 0 193.82 365.99
  Q 187.85 371.73 182.30 377.39
  Q 176.47 383.35 170.85 388.83
  Q 163.54 395.98 154.36 405.32
  Q 142.09 417.81 125.59 415.08
  Q 120.18 414.19 114.99 410.68
  Q 110.34 407.53 106.02 403.18"
/>
<path stroke="#4d6678" vector-effect="non-scaling-stroke" d="
  M 146.53 224.01
  Q 141.02 252.83 148.84 280.01
  Q 151.44 289.03 155.78 299.16
  C 159.53 307.89 165.29 317.92 172.36 324.90
  A 1.14 1.13 45.8 0 1 172.34 326.55
  L 166.12 332.34
  Q 165.65 332.77 166.07 333.25
  C 170.39 338.18 174.99 342.14 179.23 346.74
  Q 179.52 347.05 179.84 346.78
  L 186.90 340.84
  Q 187.32 340.49 187.76 340.81
  Q 191.56 343.57 195.02 346.17
  C 206.06 354.49 219.86 361.33 233.31 364.59
  Q 240.77 366.39 244.00 367.02
  Q 260.94 370.29 276.78 368.90"
/>
<path stroke="#1f3b54" vector-effect="non-scaling-stroke" d="
  M 276.78 368.90
  Q 279.93 368.75 281.76 368.55
  C 293.00 367.35 304.84 365.25 315.18 361.14
  C 325.52 357.02 336.86 350.83 345.81 343.32
  Q 346.55 342.71 345.59 342.67
  Q 331.63 342.08 321.75 342.80
  C 320.90 342.86 319.97 342.92 319.17 343.26
  Q 301.72 350.45 297.51 351.25
  Q 291.25 352.44 285.87 353.69"
/>
<path stroke="#4d6678" vector-effect="non-scaling-stroke" d="
  M 285.87 353.69
  Q 255.23 357.91 226.00 346.28
  Q 211.86 340.66 202.34 333.69
  C 198.31 330.74 195.04 327.20 191.33 323.90
  C 186.63 319.73 181.57 313.89 178.44 308.60
  C 176.53 305.38 174.39 302.34 172.58 299.10
  Q 153.93 265.73 160.85 228.41"
/>
<path stroke="#818793" vector-effect="non-scaling-stroke" d="
  M 160.85 228.41
  Q 163.63 215.52 168.77 204.11
  C 171.41 198.26 175.07 192.79 178.31 187.20
  Q 180.69 183.11 184.34 179.17
  Q 190.23 172.81 196.85 166.60
  C 200.39 163.28 204.60 159.81 208.85 157.65
  C 214.28 154.89 219.58 151.62 225.20 149.25
  Q 260.66 134.37 298.55 144.61"
/>
<path stroke="#4d6678" vector-effect="non-scaling-stroke" d="
  M 298.55 144.61
  Q 309.74 148.28 320.29 153.83
  Q 320.79 154.09 321.20 153.72
  Q 326.82 148.73 333.39 144.20
  Q 333.94 143.82 333.39 143.44
  Q 322.01 135.72 309.25 132.15"
/>
<path stroke="#818793" vector-effect="non-scaling-stroke" d="
  M 309.25 132.15
  C 283.88 123.18 254.93 123.06 228.90 131.72
  Q 219.21 134.95 214.83 136.86
  C 207.75 139.95 201.17 144.00 194.92 148.93
  Q 189.16 153.48 183.72 157.81
  Q 181.21 159.80 178.84 162.58
  Q 171.30 171.38 166.05 178.57
  Q 159.88 187.00 157.83 191.86
  Q 155.58 197.19 153.03 202.74
  Q 150.21 208.87 146.53 224.01"
/>
<path stroke="#cbdde3" vector-effect="non-scaling-stroke" d="
  M 309.25 132.15
  L 298.55 144.61"
/>
<path stroke="#cbdde3" vector-effect="non-scaling-stroke" d="
  M 160.85 228.41
  L 146.53 224.01"
/>
<path stroke="#6991a4" vector-effect="non-scaling-stroke" d="
  M 285.87 353.69
  Q 282.47 361.69 276.78 368.90"
/>
<path stroke="#1f3b54" vector-effect="non-scaling-stroke" d="
  M 376.32 227.92
  Q 380.34 249.79 375.05 271.22
  C 372.73 280.63 368.08 291.79 363.19 299.99
  Q 359.07 306.89 351.93 314.67
  Q 350.81 315.89 350.83 317.47
  Q 350.96 326.29 350.70 338.26
  A 0.45 0.45 0.0 0 0 351.45 338.61
  Q 356.73 333.99 361.47 328.46
  Q 372.27 315.86 380.22 300.49
  Q 383.96 293.25 384.65 290.66
  Q 386.13 285.11 387.69 279.61
  Q 397.18 246.07 387.19 212.65"
/>
<path stroke="#4d6678" vector-effect="non-scaling-stroke" d="
  M 387.19 212.65
  Q 385.39 205.13 383.17 200.02
  Q 380.06 192.85 374.89 184.15
  C 372.26 179.72 368.97 176.06 366.05 171.94
  C 361.89 166.06 356.99 160.68 351.55 156.05
  A 0.44 0.44 0.0 0 0 350.82 156.39
  L 350.86 175.10
  Q 350.86 175.98 351.44 176.65
  Q 370.48 198.75 376.32 227.92"
/>
<path stroke="#6991a4" vector-effect="non-scaling-stroke" d="
  M 387.19 212.65
  Q 385.15 216.53 384.46 217.49
  Q 380.67 222.71 376.32 227.92"
/>
<path stroke="#4d6678" vector-effect="non-scaling-stroke" d="
  M 256.99 167.20
  A 0.32 0.32 0.0 0 0 256.67 166.88
  L 236.57 166.88
  A 0.32 0.32 0.0 0 0 236.25 167.20
  L 236.25 223.88
  A 0.32 0.32 0.0 0 0 236.57 224.20
  L 256.67 224.20
  A 0.32 0.32 0.0 0 0 256.99 223.88
  L 256.99 167.20"
/>
<path stroke="#4d6678" vector-effect="non-scaling-stroke" d="
  M 302.53 167.33
  A 0.44 0.44 0.0 0 0 302.09 166.89
  L 282.15 166.89
  A 0.44 0.44 0.0 0 0 281.71 167.33
  L 281.71 223.77
  A 0.44 0.44 0.0 0 0 282.15 224.21
  L 302.09 224.21
  A 0.44 0.44 0.0 0 0 302.53 223.77
  L 302.53 167.33"
/>
<path stroke="#4d6678" vector-effect="non-scaling-stroke" d="
  M 262.89 261.92
  L 313.86 261.98
  A 0.55 0.55 0.0 0 1 314.41 262.53
  L 314.39 273.35"
/>
<path stroke="#818793" vector-effect="non-scaling-stroke" d="
  M 314.39 273.35
  L 314.35 320.79
  A 0.64 0.64 0.0 0 0 314.99 321.43
  L 338.80 321.44
  A 0.66 0.66 0.0 0 0 339.46 320.78
  L 339.45 249.22"
/>
<path stroke="#4d6678" vector-effect="non-scaling-stroke" d="
  M 339.45 249.22
  L 339.48 175.26
  Q 339.48 174.45 338.67 174.45
  L 325.56 174.40"
/>
<path stroke="#818793" vector-effect="non-scaling-stroke" d="
  M 325.56 174.40
  L 314.85 174.56
  Q 314.34 174.56 314.34 175.08
  L 314.34 223.54"
/>
<path stroke="#4d6678" vector-effect="non-scaling-stroke" d="
  M 314.34 223.54
  L 314.30 237.03
  Q 314.30 237.55 313.78 237.55
  L 262.56 237.48"
/>
<path stroke="#818793" vector-effect="non-scaling-stroke" d="
  M 262.56 237.48
  L 225.36 237.64
  Q 224.85 237.64 224.82 237.14
  Q 224.54 233.02 224.55 228.67
  Q 224.63 201.11 224.67 174.79
  A 0.38 0.37 -0.0 0 0 224.29 174.42
  L 200.34 174.34
  Q 199.76 174.33 199.76 174.91
  L 199.75 320.97
  Q 199.75 321.45 200.22 321.45
  L 224.13 321.47
  Q 224.73 321.47 224.73 320.87
  L 224.62 262.52
  Q 224.62 262.07 225.07 262.07
  L 262.89 261.92"
/>
<path stroke="#cbdde3" vector-effect="non-scaling-stroke" d="
  M 262.56 237.48
  Q 266.40 238.41 269.58 241.17
  Q 273.86 244.89 278.12 248.17
  A 0.66 0.65 -46.5 0 1 278.14 249.19
  L 262.89 261.92"
/>
<path stroke="#cbdde3" vector-effect="non-scaling-stroke" d="
  M 339.45 249.22
  Q 339.37 248.81 339.25 248.63
  Q 339.05 248.34 338.82 248.62
  Q 338.62 248.88 338.58 249.20
  A 0.97 0.96 72.4 0 1 338.31 249.73
  L 314.39 273.35"
/>
<path stroke="#cbdde3" vector-effect="non-scaling-stroke" d="
  M 314.34 223.54
  Q 314.01 226.71 315.13 227.83
  Q 320.29 232.95 324.85 238.25
  Q 325.73 239.27 325.72 237.92
  L 325.56 174.40"
/>
<path stroke="#4d6678" vector-effect="non-scaling-stroke" d="
  M 187.8293 219.2308
  A 0.42 0.42 0.0 0 0 187.4086 218.8115
  L 177.6486 218.8285
  A 0.42 0.42 0.0 0 0 177.2293 219.2493
  L 177.2707 242.9692
  A 0.42 0.42 0.0 0 0 177.6914 243.3885
  L 187.4514 243.3715
  A 0.42 0.42 0.0 0 0 187.8707 242.9507
  L 187.8293 219.2308"
/>
<path stroke="#4d6678" vector-effect="non-scaling-stroke" d="
  M 361.4893 219.1806
  A 0.38 0.38 0.0 0 0 361.1086 218.8013
  L 351.0886 218.8188
  A 0.38 0.38 0.0 0 0 350.7093 219.1994
  L 350.7507 242.9594
  A 0.38 0.38 0.0 0 0 351.1314 243.3387
  L 361.1514 243.3212
  A 0.38 0.38 0.0 0 0 361.5307 242.9406
  L 361.4893 219.1806"
/>
<path stroke="#1f3b54" vector-effect="non-scaling-stroke" d="
  M 187.8895 258.7193
  A 0.79 0.79 0.0 0 0 187.1008 257.9279
  L 178.0409 257.9121
  A 0.79 0.79 0.0 0 0 177.2495 258.7007
  L 177.2105 281.0207
  A 0.79 0.79 0.0 0 0 177.9992 281.8121
  L 187.0591 281.8279
  A 0.79 0.79 0.0 0 0 187.8505 281.0393
  L 187.8895 258.7193"
/>
<path stroke="#1f3b54" vector-effect="non-scaling-stroke" d="
  M 361.5002 258.4917
  A 0.61 0.61 0.0 0 0 360.8870 257.8849
  L 351.2272 257.9355
  A 0.61 0.61 0.0 0 0 350.6204 258.5486
  L 350.7398 281.3483
  A 0.61 0.61 0.0 0 0 351.3530 281.9551
  L 361.0128 281.9045
  A 0.61 0.61 0.0 0 0 361.6196 281.2914
  L 361.5002 258.4917"
/>
<path stroke="#4d6678" vector-effect="non-scaling-stroke" d="
  M 236.24 290.48
  L 236.28 329.64
  A 0.47 0.46 89.4 0 0 236.75 330.11
  L 256.33 330.01
  A 0.66 0.65 0.0 0 0 256.99 329.36
  L 256.94 290.50"
/>
<path stroke="#1f3b54" vector-effect="non-scaling-stroke" d="
  M 256.94 290.50
  L 256.85 275.89
  Q 256.84 275.28 256.23 275.28
  L 236.75 275.17
  Q 236.11 275.17 236.11 275.82
  L 236.24 290.48"
/>
<path stroke="#6991a4" vector-effect="non-scaling-stroke" d="
  M 256.94 290.50
  L 236.24 290.48"
/>
<path stroke="#4d6678" vector-effect="non-scaling-stroke" d="
  M 281.73 290.42
  L 281.77 329.74
  A 0.28 0.27 90.0 0 0 282.04 330.02
  L 302.20 330.03
  A 0.44 0.44 0.0 0 0 302.64 329.59
  L 302.59 290.34"
/>
<path stroke="#1f3b54" vector-effect="non-scaling-stroke" d="
  M 302.59 290.34
  L 302.62 276.29
  Q 302.63 275.18 301.51 275.19
  L 281.99 275.32
  A 0.36 0.36 0.0 0 0 281.64 275.68
  L 281.73 290.42"
/>
<path stroke="#6991a4" vector-effect="non-scaling-stroke" d="
  M 302.59 290.34
  L 281.73 290.42"
/>
<path stroke="#1f3b54" vector-effect="non-scaling-stroke" d="
  M 118.79 380.40
  Q 117.07 385.47 118.75 390.28
  C 122.01 399.65 134.10 401.91 140.96 395.31
  C 146.90 389.59 152.89 383.97 158.71 377.88
  C 164.81 371.49 171.21 365.65 177.41 359.44
  Q 178.59 358.26 177.38 357.19
  C 176.01 355.99 174.89 354.62 173.32 353.38"
/>
<path stroke="#4d6678" vector-effect="non-scaling-stroke" d="
  M 173.32 353.38
  L 167.82 347.76"
/>
<path stroke="#818793" vector-effect="non-scaling-stroke" d="
  M 167.82 347.76
  L 158.26 338.40
  A 0.54 0.54 0.0 0 0 157.42 338.51
  C 155.41 341.78 152.14 343.75 149.46 346.42
  Q 144.17 351.70 138.88 356.89
  C 136.30 359.43 134.17 362.26 131.38 364.62
  C 128.13 367.36 125.20 370.45 122.21 373.49
  Q 119.67 376.08 118.79 380.40"
/>
<path stroke="#cbdde3" vector-effect="non-scaling-stroke" d="
  M 167.82 347.76
  Q 162.85 352.35 158.20 357.18
  Q 153.01 362.57 148.61 366.63
  C 143.70 371.17 138.93 376.03 134.41 381.12
  C 130.67 385.34 125.85 389.26 120.15 385.28"
/>
<path stroke="#9db2bf" vector-effect="non-scaling-stroke" d="
  M 120.15 385.28
  Q 119.04 383.39 118.79 380.40"
/>
<path stroke="#6991a4" vector-effect="non-scaling-stroke" d="
  M 173.32 353.38
  Q 168.72 357.94 163.96 362.32
  Q 159.12 366.77 154.81 371.24
  Q 145.10 381.31 134.85 390.61
  Q 132.28 392.94 128.54 392.39
  Q 121.85 391.43 120.15 385.28"
/>
</g>
<path fill="#031027" d="
  M 409.52 241.14
  Q 409.07 257.01 406.71 272.37
  Q 405.70 278.95 403.82 285.47
  Q 401.66 292.99 399.49 298.27
  Q 396.42 305.74 390.25 317.14
  Q 384.30 328.14 374.69 338.97
  C 371.47 342.60 367.79 345.73 364.42 349.22
  Q 360.81 352.95 356.51 356.32
  Q 330.93 376.34 298.72 383.28
  C 285.47 386.14 270.62 386.40 257.08 385.67
  Q 247.64 385.17 238.13 383.07
  Q 220.13 379.11 203.65 370.82
  Q 199.07 368.51 195.24 365.87
  A 1.13 1.13 0.0 0 0 193.82 365.99
  Q 187.85 371.73 182.30 377.39
  Q 176.47 383.35 170.85 388.83
  Q 163.54 395.98 154.36 405.32
  Q 142.09 417.81 125.59 415.08
  Q 120.18 414.19 114.99 410.68
  Q 110.34 407.53 106.02 403.18
  Q 97.79 388.87 103.50 372.25
  C 104.54 369.25 106.46 365.98 108.84 363.66
  C 112.04 360.52 114.86 357.14 118.07 354.09
  Q 133.32 339.57 148.13 323.73
  A 1.59 1.59 0.0 0 0 148.26 321.72
  Q 147.61 320.82 147.05 319.74
  Q 141.46 308.91 137.74 299.57
  Q 132.11 285.39 129.20 268.42
  Q 126.41 252.20 127.88 236.73
  Q 131.46 199.04 152.52 168.47
  Q 158.27 160.13 165.11 152.95
  Q 172.36 145.34 179.95 139.22
  Q 188.59 132.25 200.00 125.78
  Q 210.00 120.13 223.07 115.94
  Q 234.63 112.24 249.09 110.03
  C 267.70 107.19 285.00 108.50 303.95 113.03
  C 334.56 120.34 363.51 139.20 382.18 164.79
  Q 407.20 199.08 409.52 241.14
  Z
  M 146.53 224.01
  Q 141.02 252.83 148.84 280.01
  Q 151.44 289.03 155.78 299.16
  C 159.53 307.89 165.29 317.92 172.36 324.90
  A 1.14 1.13 45.8 0 1 172.34 326.55
  L 166.12 332.34
  Q 165.65 332.77 166.07 333.25
  C 170.39 338.18 174.99 342.14 179.23 346.74
  Q 179.52 347.05 179.84 346.78
  L 186.90 340.84
  Q 187.32 340.49 187.76 340.81
  Q 191.56 343.57 195.02 346.17
  C 206.06 354.49 219.86 361.33 233.31 364.59
  Q 240.77 366.39 244.00 367.02
  Q 260.94 370.29 276.78 368.90
  Q 279.93 368.75 281.76 368.55
  C 293.00 367.35 304.84 365.25 315.18 361.14
  C 325.52 357.02 336.86 350.83 345.81 343.32
  Q 346.55 342.71 345.59 342.67
  Q 331.63 342.08 321.75 342.80
  C 320.90 342.86 319.97 342.92 319.17 343.26
  Q 301.72 350.45 297.51 351.25
  Q 291.25 352.44 285.87 353.69
  Q 255.23 357.91 226.00 346.28
  Q 211.86 340.66 202.34 333.69
  C 198.31 330.74 195.04 327.20 191.33 323.90
  C 186.63 319.73 181.57 313.89 178.44 308.60
  C 176.53 305.38 174.39 302.34 172.58 299.10
  Q 153.93 265.73 160.85 228.41
  Q 163.63 215.52 168.77 204.11
  C 171.41 198.26 175.07 192.79 178.31 187.20
  Q 180.69 183.11 184.34 179.17
  Q 190.23 172.81 196.85 166.60
  C 200.39 163.28 204.60 159.81 208.85 157.65
  C 214.28 154.89 219.58 151.62 225.20 149.25
  Q 260.66 134.37 298.55 144.61
  Q 309.74 148.28 320.29 153.83
  Q 320.79 154.09 321.20 153.72
  Q 326.82 148.73 333.39 144.20
  Q 333.94 143.82 333.39 143.44
  Q 322.01 135.72 309.25 132.15
  C 283.88 123.18 254.93 123.06 228.90 131.72
  Q 219.21 134.95 214.83 136.86
  C 207.75 139.95 201.17 144.00 194.92 148.93
  Q 189.16 153.48 183.72 157.81
  Q 181.21 159.80 178.84 162.58
  Q 171.30 171.38 166.05 178.57
  Q 159.88 187.00 157.83 191.86
  Q 155.58 197.19 153.03 202.74
  Q 150.21 208.87 146.53 224.01
  Z
  M 376.32 227.92
  Q 380.34 249.79 375.05 271.22
  C 372.73 280.63 368.08 291.79 363.19 299.99
  Q 359.07 306.89 351.93 314.67
  Q 350.81 315.89 350.83 317.47
  Q 350.96 326.29 350.70 338.26
  A 0.45 0.45 0.0 0 0 351.45 338.61
  Q 356.73 333.99 361.47 328.46
  Q 372.27 315.86 380.22 300.49
  Q 383.96 293.25 384.65 290.66
  Q 386.13 285.11 387.69 279.61
  Q 397.18 246.07 387.19 212.65
  Q 385.39 205.13 383.17 200.02
  Q 380.06 192.85 374.89 184.15
  C 372.26 179.72 368.97 176.06 366.05 171.94
  C 361.89 166.06 356.99 160.68 351.55 156.05
  A 0.44 0.44 0.0 0 0 350.82 156.39
  L 350.86 175.10
  Q 350.86 175.98 351.44 176.65
  Q 370.48 198.75 376.32 227.92
  Z
  M 256.99 167.20
  A 0.32 0.32 0.0 0 0 256.67 166.88
  L 236.57 166.88
  A 0.32 0.32 0.0 0 0 236.25 167.20
  L 236.25 223.88
  A 0.32 0.32 0.0 0 0 236.57 224.20
  L 256.67 224.20
  A 0.32 0.32 0.0 0 0 256.99 223.88
  L 256.99 167.20
  Z
  M 302.53 167.33
  A 0.44 0.44 0.0 0 0 302.09 166.89
  L 282.15 166.89
  A 0.44 0.44 0.0 0 0 281.71 167.33
  L 281.71 223.77
  A 0.44 0.44 0.0 0 0 282.15 224.21
  L 302.09 224.21
  A 0.44 0.44 0.0 0 0 302.53 223.77
  L 302.53 167.33
  Z
  M 262.89 261.92
  L 313.86 261.98
  A 0.55 0.55 0.0 0 1 314.41 262.53
  L 314.39 273.35
  L 314.35 320.79
  A 0.64 0.64 0.0 0 0 314.99 321.43
  L 338.80 321.44
  A 0.66 0.66 0.0 0 0 339.46 320.78
  L 339.45 249.22
  L 339.48 175.26
  Q 339.48 174.45 338.67 174.45
  L 325.56 174.40
  L 314.85 174.56
  Q 314.34 174.56 314.34 175.08
  L 314.34 223.54
  L 314.30 237.03
  Q 314.30 237.55 313.78 237.55
  L 262.56 237.48
  L 225.36 237.64
  Q 224.85 237.64 224.82 237.14
  Q 224.54 233.02 224.55 228.67
  Q 224.63 201.11 224.67 174.79
  A 0.38 0.37 -0.0 0 0 224.29 174.42
  L 200.34 174.34
  Q 199.76 174.33 199.76 174.91
  L 199.75 320.97
  Q 199.75 321.45 200.22 321.45
  L 224.13 321.47
  Q 224.73 321.47 224.73 320.87
  L 224.62 262.52
  Q 224.62 262.07 225.07 262.07
  L 262.89 261.92
  Z
  M 187.8293 219.2308
  A 0.42 0.42 0.0 0 0 187.4086 218.8115
  L 177.6486 218.8285
  A 0.42 0.42 0.0 0 0 177.2293 219.2493
  L 177.2707 242.9692
  A 0.42 0.42 0.0 0 0 177.6914 243.3885
  L 187.4514 243.3715
  A 0.42 0.42 0.0 0 0 187.8707 242.9507
  L 187.8293 219.2308
  Z
  M 361.4893 219.1806
  A 0.38 0.38 0.0 0 0 361.1086 218.8013
  L 351.0886 218.8188
  A 0.38 0.38 0.0 0 0 350.7093 219.1994
  L 350.7507 242.9594
  A 0.38 0.38 0.0 0 0 351.1314 243.3387
  L 361.1514 243.3212
  A 0.38 0.38 0.0 0 0 361.5307 242.9406
  L 361.4893 219.1806
  Z
  M 187.8895 258.7193
  A 0.79 0.79 0.0 0 0 187.1008 257.9279
  L 178.0409 257.9121
  A 0.79 0.79 0.0 0 0 177.2495 258.7007
  L 177.2105 281.0207
  A 0.79 0.79 0.0 0 0 177.9992 281.8121
  L 187.0591 281.8279
  A 0.79 0.79 0.0 0 0 187.8505 281.0393
  L 187.8895 258.7193
  Z
  M 361.5002 258.4917
  A 0.61 0.61 0.0 0 0 360.8870 257.8849
  L 351.2272 257.9355
  A 0.61 0.61 0.0 0 0 350.6204 258.5486
  L 350.7398 281.3483
  A 0.61 0.61 0.0 0 0 351.3530 281.9551
  L 361.0128 281.9045
  A 0.61 0.61 0.0 0 0 361.6196 281.2914
  L 361.5002 258.4917
  Z
  M 236.24 290.48
  L 236.28 329.64
  A 0.47 0.46 89.4 0 0 236.75 330.11
  L 256.33 330.01
  A 0.66 0.65 0.0 0 0 256.99 329.36
  L 256.94 290.50
  L 256.85 275.89
  Q 256.84 275.28 256.23 275.28
  L 236.75 275.17
  Q 236.11 275.17 236.11 275.82
  L 236.24 290.48
  Z
  M 281.73 290.42
  L 281.77 329.74
  A 0.28 0.27 90.0 0 0 282.04 330.02
  L 302.20 330.03
  A 0.44 0.44 0.0 0 0 302.64 329.59
  L 302.59 290.34
  L 302.62 276.29
  Q 302.63 275.18 301.51 275.19
  L 281.99 275.32
  A 0.36 0.36 0.0 0 0 281.64 275.68
  L 281.73 290.42
  Z
  M 118.79 380.40
  Q 117.07 385.47 118.75 390.28
  C 122.01 399.65 134.10 401.91 140.96 395.31
  C 146.90 389.59 152.89 383.97 158.71 377.88
  C 164.81 371.49 171.21 365.65 177.41 359.44
  Q 178.59 358.26 177.38 357.19
  C 176.01 355.99 174.89 354.62 173.32 353.38
  L 167.82 347.76
  L 158.26 338.40
  A 0.54 0.54 0.0 0 0 157.42 338.51
  C 155.41 341.78 152.14 343.75 149.46 346.42
  Q 144.17 351.70 138.88 356.89
  C 136.30 359.43 134.17 362.26 131.38 364.62
  C 128.13 367.36 125.20 370.45 122.21 373.49
  Q 119.67 376.08 118.79 380.40
  Z"
/>
<path fill="#fffefe" d="
  M 309.25 132.15
  L 298.55 144.61
  Q 260.66 134.37 225.20 149.25
  C 219.58 151.62 214.28 154.89 208.85 157.65
  C 204.60 159.81 200.39 163.28 196.85 166.60
  Q 190.23 172.81 184.34 179.17
  Q 180.69 183.11 178.31 187.20
  C 175.07 192.79 171.41 198.26 168.77 204.11
  Q 163.63 215.52 160.85 228.41
  L 146.53 224.01
  Q 150.21 208.87 153.03 202.74
  Q 155.58 197.19 157.83 191.86
  Q 159.88 187.00 166.05 178.57
  Q 171.30 171.38 178.84 162.58
  Q 181.21 159.80 183.72 157.81
  Q 189.16 153.48 194.92 148.93
  C 201.17 144.00 207.75 139.95 214.83 136.86
  Q 219.21 134.95 228.90 131.72
  C 254.93 123.06 283.88 123.18 309.25 132.15
  Z"
/>
<path fill="#96bcc8" d="
  M 309.25 132.15
  Q 322.01 135.72 333.39 143.44
  Q 333.94 143.82 333.39 144.20
  Q 326.82 148.73 321.20 153.72
  Q 320.79 154.09 320.29 153.83
  Q 309.74 148.28 298.55 144.61
  L 309.25 132.15
  Z"
/>
<path fill="#96bcc8" d="
  M 387.19 212.65
  Q 385.15 216.53 384.46 217.49
  Q 380.67 222.71 376.32 227.92
  Q 370.48 198.75 351.44 176.65
  Q 350.86 175.98 350.86 175.10
  L 350.82 156.39
  A 0.44 0.44 0.0 0 1 351.55 156.05
  C 356.99 160.68 361.89 166.06 366.05 171.94
  C 368.97 176.06 372.26 179.72 374.89 184.15
  Q 380.06 192.85 383.17 200.02
  Q 385.39 205.13 387.19 212.65
  Z"
/>
<rect fill="#96bcc8" x="236.25" y="166.88" width="20.74" height="57.32" rx="0.32"/>
<rect fill="#96bcc8" x="281.71" y="166.89" width="20.82" height="57.32" rx="0.44"/>
<path fill="#fffefe" d="
  M 262.56 237.48
  Q 266.40 238.41 269.58 241.17
  Q 273.86 244.89 278.12 248.17
  A 0.66 0.65 -46.5 0 1 278.14 249.19
  L 262.89 261.92
  L 225.07 262.07
  Q 224.62 262.07 224.62 262.52
  L 224.73 320.87
  Q 224.73 321.47 224.13 321.47
  L 200.22 321.45
  Q 199.75 321.45 199.75 320.97
  L 199.76 174.91
  Q 199.76 174.33 200.34 174.34
  L 224.29 174.42
  A 0.38 0.37 0.0 0 1 224.67 174.79
  Q 224.63 201.11 224.55 228.67
  Q 224.54 233.02 224.82 237.14
  Q 224.85 237.64 225.36 237.64
  L 262.56 237.48
  Z"
/>
<path fill="#96bcc8" d="
  M 339.45 249.22
  Q 339.37 248.81 339.25 248.63
  Q 339.05 248.34 338.82 248.62
  Q 338.62 248.88 338.58 249.20
  A 0.97 0.96 72.4 0 1 338.31 249.73
  L 314.39 273.35
  L 314.41 262.53
  A 0.55 0.55 0.0 0 0 313.86 261.98
  L 262.89 261.92
  L 278.14 249.19
  A 0.66 0.65 -46.5 0 0 278.12 248.17
  Q 273.86 244.89 269.58 241.17
  Q 266.40 238.41 262.56 237.48
  L 313.78 237.55
  Q 314.30 237.55 314.30 237.03
  L 314.34 223.54
  Q 314.01 226.71 315.13 227.83
  Q 320.29 232.95 324.85 238.25
  Q 325.73 239.27 325.72 237.92
  L 325.56 174.40
  L 338.67 174.45
  Q 339.48 174.45 339.48 175.26
  L 339.45 249.22
  Z"
/>
<path fill="#fffefe" d="
  M 325.56 174.40
  L 325.72 237.92
  Q 325.73 239.27 324.85 238.25
  Q 320.29 232.95 315.13 227.83
  Q 314.01 226.71 314.34 223.54
  L 314.34 175.08
  Q 314.34 174.56 314.85 174.56
  L 325.56 174.40
  Z"
/>
<path fill="#3b6580" d="
  M 387.19 212.65
  Q 397.18 246.07 387.69 279.61
  Q 386.13 285.11 384.65 290.66
  Q 383.96 293.25 380.22 300.49
  Q 372.27 315.86 361.47 328.46
  Q 356.73 333.99 351.45 338.61
  A 0.45 0.45 0.0 0 1 350.70 338.26
  Q 350.96 326.29 350.83 317.47
  Q 350.81 315.89 351.93 314.67
  Q 359.07 306.89 363.19 299.99
  C 368.08 291.79 372.73 280.63 375.05 271.22
  Q 380.34 249.79 376.32 227.92
  Q 380.67 222.71 384.46 217.49
  Q 385.15 216.53 387.19 212.65
  Z"
/>
<rect fill="#96bcc8" x="-5.30" y="-12.28" transform="translate(182.55,231.10) rotate(-0.1)" width="10.60" height="24.56" rx="0.42"/>
<rect fill="#96bcc8" x="-5.39" y="-12.26" transform="translate(356.12,231.07) rotate(-0.1)" width="10.78" height="24.52" rx="0.38"/>
<path fill="#96bcc8" d="
  M 146.53 224.01
  L 160.85 228.41
  Q 153.93 265.73 172.58 299.10
  C 174.39 302.34 176.53 305.38 178.44 308.60
  C 181.57 313.89 186.63 319.73 191.33 323.90
  C 195.04 327.20 198.31 330.74 202.34 333.69
  Q 211.86 340.66 226.00 346.28
  Q 255.23 357.91 285.87 353.69
  Q 282.47 361.69 276.78 368.90
  Q 260.94 370.29 244.00 367.02
  Q 240.77 366.39 233.31 364.59
  C 219.86 361.33 206.06 354.49 195.02 346.17
  Q 191.56 343.57 187.76 340.81
  Q 187.32 340.49 186.90 340.84
  L 179.84 346.78
  Q 179.52 347.05 179.23 346.74
  C 174.99 342.14 170.39 338.18 166.07 333.25
  Q 165.65 332.77 166.12 332.34
  L 172.34 326.55
  A 1.14 1.13 45.8 0 0 172.36 324.90
  C 165.29 317.92 159.53 307.89 155.78 299.16
  Q 151.44 289.03 148.84 280.01
  Q 141.02 252.83 146.53 224.01
  Z"
/>
<path fill="#06304b" d="
  M 409.52 241.14
  Q 411.65 260.59 411.13 267.12
  Q 410.59 273.94 410.00 281.08
  C 409.52 287.03 408.43 293.05 406.80 298.77
  Q 401.80 316.28 390.44 333.39
  Q 384.92 341.69 378.37 348.57
  Q 355.28 372.80 324.44 385.25
  Q 307.49 392.10 291.60 394.26
  C 272.09 396.92 249.42 395.83 229.84 390.30
  Q 214.95 386.09 198.37 379.13
  C 196.09 378.17 194.32 378.93 192.71 380.55
  C 188.28 385.01 183.88 389.61 179.38 393.82
  Q 169.11 403.40 159.02 413.09
  C 152.85 419.01 146.49 423.24 138.25 424.57
  Q 124.70 426.77 114.89 417.37
  Q 111.19 413.82 106.02 403.18
  Q 110.34 407.53 114.99 410.68
  Q 120.18 414.19 125.59 415.08
  Q 142.09 417.81 154.36 405.32
  Q 163.54 395.98 170.85 388.83
  Q 176.47 383.35 182.30 377.39
  Q 187.85 371.73 193.82 365.99
  A 1.13 1.13 0.0 0 1 195.24 365.87
  Q 199.07 368.51 203.65 370.82
  Q 220.13 379.11 238.13 383.07
  Q 247.64 385.17 257.08 385.67
  C 270.62 386.40 285.47 386.14 298.72 383.28
  Q 330.93 376.34 356.51 356.32
  Q 360.81 352.95 364.42 349.22
  C 367.79 345.73 371.47 342.60 374.69 338.97
  Q 384.30 328.14 390.25 317.14
  Q 396.42 305.74 399.49 298.27
  Q 401.66 292.99 403.82 285.47
  Q 405.70 278.95 406.71 272.37
  Q 409.07 257.01 409.52 241.14
  Z"
/>
<path fill="#fffefe" d="
  M 339.45 249.22
  L 339.46 320.78
  A 0.66 0.66 0.0 0 1 338.80 321.44
  L 314.99 321.43
  A 0.64 0.64 0.0 0 1 314.35 320.79
  L 314.39 273.35
  L 338.31 249.73
  A 0.97 0.96 72.4 0 0 338.58 249.20
  Q 338.62 248.88 338.82 248.62
  Q 339.05 248.34 339.25 248.63
  Q 339.37 248.81 339.45 249.22
  Z"
/>
<rect fill="#3b6580" x="-5.32" y="-11.95" transform="translate(182.55,269.87) rotate(0.1)" width="10.64" height="23.90" rx="0.79"/>
<rect fill="#3b6580" x="-5.44" y="-12.01" transform="translate(356.12,269.92) rotate(-0.3)" width="10.88" height="24.02" rx="0.61"/>
<path fill="#3b6580" d="
  M 256.94 290.50
  L 236.24 290.48
  L 236.11 275.82
  Q 236.11 275.17 236.75 275.17
  L 256.23 275.28
  Q 256.84 275.28 256.85 275.89
  L 256.94 290.50
  Z"
/>
<path fill="#3b6580" d="
  M 302.59 290.34
  L 281.73 290.42
  L 281.64 275.68
  A 0.36 0.36 0.0 0 1 281.99 275.32
  L 301.51 275.19
  Q 302.63 275.18 302.62 276.29
  L 302.59 290.34
  Z"
/>
<path fill="#96bcc8" d="
  M 256.94 290.50
  L 256.99 329.36
  A 0.66 0.65 0.0 0 1 256.33 330.01
  L 236.75 330.11
  A 0.47 0.46 89.4 0 1 236.28 329.64
  L 236.24 290.48
  L 256.94 290.50
  Z"
/>
<path fill="#96bcc8" d="
  M 302.59 290.34
  L 302.64 329.59
  A 0.44 0.44 0.0 0 1 302.20 330.03
  L 282.04 330.02
  A 0.28 0.27 -90.0 0 1 281.77 329.74
  L 281.73 290.42
  L 302.59 290.34
  Z"
/>
<path fill="#fffefe" d="
  M 167.82 347.76
  Q 162.85 352.35 158.20 357.18
  Q 153.01 362.57 148.61 366.63
  C 143.70 371.17 138.93 376.03 134.41 381.12
  C 130.67 385.34 125.85 389.26 120.15 385.28
  Q 119.04 383.39 118.79 380.40
  Q 119.67 376.08 122.21 373.49
  C 125.20 370.45 128.13 367.36 131.38 364.62
  C 134.17 362.26 136.30 359.43 138.88 356.89
  Q 144.17 351.70 149.46 346.42
  C 152.14 343.75 155.41 341.78 157.42 338.51
  A 0.54 0.54 0.0 0 1 158.26 338.40
  L 167.82 347.76
  Z"
/>
<path fill="#3b6580" d="
  M 276.78 368.90
  Q 282.47 361.69 285.87 353.69
  Q 291.25 352.44 297.51 351.25
  Q 301.72 350.45 319.17 343.26
  C 319.97 342.92 320.90 342.86 321.75 342.80
  Q 331.63 342.08 345.59 342.67
  Q 346.55 342.71 345.81 343.32
  C 336.86 350.83 325.52 357.02 315.18 361.14
  C 304.84 365.25 293.00 367.35 281.76 368.55
  Q 279.93 368.75 276.78 368.90
  Z"
/>
<path fill="#96bcc8" d="
  M 167.82 347.76
  L 173.32 353.38
  Q 168.72 357.94 163.96 362.32
  Q 159.12 366.77 154.81 371.24
  Q 145.10 381.31 134.85 390.61
  Q 132.28 392.94 128.54 392.39
  Q 121.85 391.43 120.15 385.28
  C 125.85 389.26 130.67 385.34 134.41 381.12
  C 138.93 376.03 143.70 371.17 148.61 366.63
  Q 153.01 362.57 158.20 357.18
  Q 162.85 352.35 167.82 347.76
  Z"
/>
<path fill="#3b6580" d="
  M 173.32 353.38
  C 174.89 354.62 176.01 355.99 177.38 357.19
  Q 178.59 358.26 177.41 359.44
  C 171.21 365.65 164.81 371.49 158.71 377.88
  C 152.89 383.97 146.90 389.59 140.96 395.31
  C 134.10 401.91 122.01 399.65 118.75 390.28
  Q 117.07 385.47 118.79 380.40
  Q 119.04 383.39 120.15 385.28
  Q 121.85 391.43 128.54 392.39
  Q 132.28 392.94 134.85 390.61
  Q 145.10 381.31 154.81 371.24
  Q 159.12 366.77 163.96 362.32
  Q 168.72 357.94 173.32 353.38
  Z"
/>
</svg>
