<?xml version="1.0" encoding="UTF-8" standalone="no"?>
<!DOCTYPE svg PUBLIC "-//W3C//DTD SVG 1.1//EN" "http://www.w3.org/Graphics/SVG/1.1/DTD/svg11.dtd">
<svg xmlns="http://www.w3.org/2000/svg" version="1.1" viewBox="0.00 0.00 1695.00 311.00">
<g stroke-width="2.00" fill="none" stroke-linecap="butt">
<path stroke="#011a36" vector-effect="non-scaling-stroke" d="
  M 302.12 130.28
  L 301.83 130.80
  Q 301.54 131.33 301.53 131.93
  Q 301.12 147.90 298.80 161.88
  Q 296.36 176.60 290.02 190.63
  C 284.13 203.64 276.74 216.63 267.17 226.65
  Q 256.36 237.96 251.76 241.68
  C 221.34 266.25 184.08 276.01 145.27 271.15
  Q 117.54 267.67 92.17 252.47
  Q 91.74 252.21 91.33 252.49
  Q 90.20 253.24 89.23 254.21
  Q 69.62 273.91 51.39 292.06
  C 41.37 302.03 26.69 304.20 14.52 296.75
  Q 11.62 294.98 5.04 289.15"
/>
<path stroke="#4c6276" vector-effect="non-scaling-stroke" d="
  M 44.72 113.72
  Q 39.49 140.70 46.49 166.75
  Q 51.44 185.16 60.59 200.41
  Q 64.77 207.37 70.08 212.57
  A 0.90 0.90 0.0 0 1 70.07 213.86
  L 64.03 219.55
  Q 63.26 220.28 64.00 221.03
  L 76.56 233.77
  A 0.80 0.80 0.0 0 0 77.63 233.82
  L 84.27 228.24
  Q 84.75 227.85 85.23 228.22
  C 99.44 239.26 113.54 247.62 131.25 251.82
  Q 153.40 257.07 171.91 255.70"
/>
<path stroke="#1c3652" vector-effect="non-scaling-stroke" d="
  M 171.91 255.70
  C 197.79 254.28 220.25 246.29 239.59 230.67
  Q 240.56 229.89 239.32 229.81
  Q 227.95 229.13 216.84 229.85
  Q 213.92 230.04 211.03 231.28
  Q 196.85 237.32 193.02 238.05
  Q 186.76 239.25 180.83 240.57"
/>
<path stroke="#4c6276" vector-effect="non-scaling-stroke" d="
  M 180.83 240.57
  Q 152.76 244.31 125.97 234.57
  C 114.35 230.34 103.40 224.93 94.39 216.72
  C 88.61 211.46 82.84 206.28 78.40 199.87
  Q 72.65 191.56 68.17 182.84
  Q 53.97 155.15 58.09 123.77
  Q 58.44 121.08 58.89 118.09"
/>
<path stroke="#808390" vector-effect="non-scaling-stroke" d="
  M 58.89 118.09
  Q 60.93 108.83 64.35 99.80
  C 67.69 91.03 72.90 82.17 78.06 74.53
  Q 80.71 70.60 88.12 63.16
  C 93.73 57.54 99.62 51.77 106.20 48.46
  C 111.05 46.02 115.99 43.02 120.74 40.96
  Q 155.63 25.80 193.25 35.92"
/>
<path stroke="#4c6276" vector-effect="non-scaling-stroke" d="
  M 193.25 35.92
  Q 204.19 39.53 214.46 44.91
  A 1.07 1.07 0.0 0 0 215.66 44.77
  Q 221.33 39.83 227.69 35.39
  A 0.39 0.39 0.0 0 0 227.68 34.75
  Q 216.66 27.12 203.80 23.49"
/>
<path stroke="#808390" vector-effect="non-scaling-stroke" d="
  M 203.80 23.49
  C 172.76 12.65 139.44 15.64 109.89 28.91
  C 99.57 33.54 90.09 41.25 81.33 48.55
  Q 77.23 51.97 72.61 57.69
  Q 66.65 65.06 61.74 71.93
  Q 58.01 77.15 54.26 85.38
  Q 50.64 93.29 48.53 99.48
  Q 47.00 103.99 44.72 113.72"
/>
<path stroke="#cbdee4" vector-effect="non-scaling-stroke" d="
  M 203.80 23.49
  L 193.25 35.92"
/>
<path stroke="#cbdee4" vector-effect="non-scaling-stroke" d="
  M 58.89 118.09
  L 44.72 113.72"
/>
<path stroke="#6891a5" vector-effect="non-scaling-stroke" d="
  M 180.83 240.57
  Q 177.50 248.59 171.91 255.70"
/>
<path stroke="#1c3652" vector-effect="non-scaling-stroke" d="
  M 269.29 117.24
  Q 276.14 156.93 254.20 191.06
  Q 250.40 196.98 245.37 202.61
  Q 244.22 203.91 244.25 205.52
  Q 244.44 215.01 244.20 224.45
  Q 244.13 227.08 246.04 225.27
  Q 263.29 209.06 274.67 185.90
  Q 277.10 180.95 279.22 173.59
  Q 281.51 165.58 282.73 159.50
  Q 288.48 130.85 280.23 102.96"
/>
<path stroke="#4c6276" vector-effect="non-scaling-stroke" d="
  M 280.23 102.96
  Q 278.62 95.67 276.11 89.89
  Q 272.88 82.48 268.32 74.94
  Q 265.66 70.52 257.17 59.52
  Q 251.92 52.73 245.32 47.01
  A 0.64 0.64 0.0 0 0 244.26 47.50
  L 244.37 65.75
  A 2.07 2.04 24.9 0 0 244.87 67.09
  Q 263.34 88.57 269.29 117.24"
/>
<path stroke="#6891a5" vector-effect="non-scaling-stroke" d="
  M 280.23 102.96
  Q 280.11 103.00 279.98 103.04
  Q 279.74 103.12 279.61 103.34
  Q 275.22 110.64 269.29 117.24"
/>
<path stroke="#4c6276" vector-effect="non-scaling-stroke" d="
  M 152.90 58.10
  A 0.60 0.60 0.0 0 0 152.30 57.50
  L 132.98 57.50
  A 0.60 0.60 0.0 0 0 132.38 58.10
  L 132.38 113.30
  A 0.60 0.60 0.0 0 0 132.98 113.90
  L 152.30 113.90
  A 0.60 0.60 0.0 0 0 152.90 113.30
  L 152.90 58.10"
/>
<path stroke="#4c6276" vector-effect="non-scaling-stroke" d="
  M 197.43 58.26
  A 0.76 0.76 0.0 0 0 196.67 57.50
  L 177.59 57.50
  A 0.76 0.76 0.0 0 0 176.83 58.26
  L 176.83 113.20
  A 0.76 0.76 0.0 0 0 177.59 113.96
  L 196.67 113.96
  A 0.76 0.76 0.0 0 0 197.43 113.20
  L 197.43 58.26"
/>
<path stroke="#4c6276" vector-effect="non-scaling-stroke" d="
  M 158.70 150.90
  L 208.19 151.07
  Q 208.71 151.07 208.71 151.58
  L 208.77 161.81"
/>
<path stroke="#808390" vector-effect="non-scaling-stroke" d="
  M 208.77 161.81
  L 208.78 208.72
  A 0.30 0.30 0.0 0 0 209.07 209.02
  L 232.75 209.22
  A 0.73 0.73 0.0 0 0 233.48 208.49
  L 233.47 137.44"
/>
<path stroke="#4c6276" vector-effect="non-scaling-stroke" d="
  M 233.47 137.44
  L 233.53 65.93
  Q 233.53 65.03 232.63 65.03
  L 219.90 65.04"
/>
<path stroke="#808390" vector-effect="non-scaling-stroke" d="
  M 219.90 65.04
  L 209.44 65.16
  Q 208.92 65.16 208.92 65.68
  L 208.76 116.75"
/>
<path stroke="#4c6276" vector-effect="non-scaling-stroke" d="
  M 208.76 116.75
  L 208.69 126.13
  A 0.68 0.68 0.0 0 1 208.01 126.80
  L 158.96 126.75"
/>
<path stroke="#808390" vector-effect="non-scaling-stroke" d="
  M 158.96 126.75
  L 122.05 127.02
  A 0.52 0.51 86.9 0 1 121.54 126.56
  Q 121.27 124.03 121.25 121.68
  Q 121.12 95.29 121.30 65.59
  Q 121.31 65.01 120.73 65.01
  L 97.02 64.95
  A 0.28 0.27 -90.0 0 0 96.75 65.23
  L 96.75 208.55
  A 0.62 0.62 0.0 0 0 97.37 209.17
  L 120.57 209.18
  A 0.76 0.75 0.0 0 0 121.33 208.43
  L 121.24 151.55
  Q 121.24 151.05 121.74 151.05
  L 158.70 150.90"
/>
<path stroke="#cbdee4" vector-effect="non-scaling-stroke" d="
  M 158.96 126.75
  C 160.58 127.83 162.40 128.49 163.85 129.65
  Q 168.69 133.53 173.38 137.48
  A 0.47 0.47 0.0 0 1 173.38 138.20
  L 158.70 150.90"
/>
<path stroke="#cbdee4" vector-effect="non-scaling-stroke" d="
  M 233.47 137.44
  L 208.77 161.81"
/>
<path stroke="#cbdee4" vector-effect="non-scaling-stroke" d="
  M 219.90 65.04
  L 220.03 126.89
  Q 220.04 128.72 218.78 127.39
  L 208.76 116.75"
/>
<path stroke="#4c6276" vector-effect="non-scaling-stroke" d="
  M 85.31 109.07
  A 0.69 0.69 0.0 0 0 84.62 108.38
  L 75.44 108.38
  A 0.69 0.69 0.0 0 0 74.75 109.07
  L 74.75 132.07
  A 0.69 0.69 0.0 0 0 75.44 132.76
  L 84.62 132.76
  A 0.69 0.69 0.0 0 0 85.31 132.07
  L 85.31 109.07"
/>
<path stroke="#4c6276" vector-effect="non-scaling-stroke" d="
  M 254.99 108.92
  A 0.53 0.53 0.0 0 0 254.46 108.39
  L 244.78 108.39
  A 0.53 0.53 0.0 0 0 244.25 108.92
  L 244.25 132.18
  A 0.53 0.53 0.0 0 0 244.78 132.71
  L 254.46 132.71
  A 0.53 0.53 0.0 0 0 254.99 132.18
  L 254.99 108.92"
/>
<path stroke="#1c3652" vector-effect="non-scaling-stroke" d="
  M 85.29 147.59
  A 0.83 0.83 0.0 0 0 84.46 146.76
  L 75.58 146.76
  A 0.83 0.83 0.0 0 0 74.75 147.59
  L 74.75 169.55
  A 0.83 0.83 0.0 0 0 75.58 170.38
  L 84.46 170.38
  A 0.83 0.83 0.0 0 0 85.29 169.55
  L 85.29 147.59"
/>
<path stroke="#1c3652" vector-effect="non-scaling-stroke" d="
  M 254.9710 147.4313
  A 0.70 0.70 0.0 0 0 254.2685 146.7337
  L 244.8886 146.7664
  A 0.70 0.70 0.0 0 0 244.1910 147.4689
  L 244.2690 169.8087
  A 0.70 0.70 0.0 0 0 244.9715 170.5063
  L 254.3514 170.4736
  A 0.70 0.70 0.0 0 0 255.0490 169.7711
  L 254.9710 147.4313"
/>
<path stroke="#4c6276" vector-effect="non-scaling-stroke" d="
  M 132.32 178.61
  L 132.37 216.81
  Q 132.37 217.75 133.30 217.74
  L 152.02 217.62
  A 0.86 0.86 0.0 0 0 152.88 216.76
  L 152.78 178.68"
/>
<path stroke="#1c3652" vector-effect="non-scaling-stroke" d="
  M 152.78 178.68
  L 152.73 164.26
  A 0.49 0.49 0.0 0 0 152.24 163.78
  L 133.00 163.66
  Q 132.26 163.65 132.27 164.39
  L 132.32 178.61"
/>
<path stroke="#6891a5" vector-effect="non-scaling-stroke" d="
  M 152.78 178.68
  L 132.32 178.61"
/>
<path stroke="#4c6276" vector-effect="non-scaling-stroke" d="
  M 176.99 178.50
  L 177.03 216.96
  Q 177.03 217.63 177.70 217.63
  L 197.01 217.63
  A 0.49 0.49 0.0 0 0 197.50 217.14
  L 197.48 178.47"
/>
<path stroke="#1c3652" vector-effect="non-scaling-stroke" d="
  M 197.48 178.47
  L 197.46 164.63
  A 0.93 0.93 0.0 0 0 196.52 163.70
  L 177.28 163.79
  A 0.45 0.44 -90.0 0 0 176.84 164.24
  L 176.99 178.50"
/>
<path stroke="#6891a5" vector-effect="non-scaling-stroke" d="
  M 197.48 178.47
  L 176.99 178.50"
/>
<path stroke="#1c3652" vector-effect="non-scaling-stroke" d="
  M 17.47 267.83
  C 14.72 279.04 23.11 287.35 34.07 284.62
  Q 37.39 283.79 41.35 279.85
  C 53.02 268.24 64.52 256.71 75.48 245.98
  A 0.94 0.93 44.8 0 0 75.47 244.64
  L 71.01 240.30"
/>
<path stroke="#4c6276" vector-effect="non-scaling-stroke" d="
  M 71.01 240.30
  L 65.54 234.61"
/>
<path stroke="#808390" vector-effect="non-scaling-stroke" d="
  M 65.54 234.61
  L 56.33 225.63
  Q 55.81 225.13 55.41 225.73
  C 54.59 226.94 53.69 228.00 52.58 228.99
  Q 42.96 237.62 34.82 246.35
  C 30.43 251.07 25.24 255.26 20.86 260.11
  Q 17.98 263.30 17.47 267.83"
/>
<path stroke="#cbdee4" vector-effect="non-scaling-stroke" d="
  M 65.54 234.61
  Q 54.76 245.55 43.81 256.13
  C 39.09 260.70 34.73 265.47 30.22 270.21
  Q 25.94 274.72 19.51 272.18"
/>
<path stroke="#9cb2c0" vector-effect="non-scaling-stroke" d="
  M 19.51 272.18
  L 17.47 267.83"
/>
<path stroke="#6891a5" vector-effect="non-scaling-stroke" d="
  M 71.01 240.30
  Q 67.07 244.10 63.15 247.75
  Q 59.14 251.50 55.39 255.30
  Q 44.68 266.15 33.57 276.57
  Q 31.68 278.34 29.51 278.48
  Q 21.74 279.00 19.51 272.18"
/>
</g>
<path fill="#000722" d="
  M 302.12 130.28
  L 301.83 130.80
  Q 301.54 131.33 301.53 131.93
  Q 301.12 147.90 298.80 161.88
  Q 296.36 176.60 290.02 190.63
  C 284.13 203.64 276.74 216.63 267.17 226.65
  Q 256.36 237.96 251.76 241.68
  C 221.34 266.25 184.08 276.01 145.27 271.15
  Q 117.54 267.67 92.17 252.47
  Q 91.74 252.21 91.33 252.49
  Q 90.20 253.24 89.23 254.21
  Q 69.62 273.91 51.39 292.06
  C 41.37 302.03 26.69 304.20 14.52 296.75
  Q 11.62 294.98 5.04 289.15
  Q -2.66 274.69 2.59 259.28
  C 3.80 255.71 5.76 252.54 8.48 249.85
  C 11.19 247.17 13.70 244.21 16.46 241.55
  Q 32.08 226.52 46.18 211.47
  A 1.84 1.84 0.0 0 0 46.45 209.31
  Q 35.91 190.59 30.45 169.63
  Q 21.14 133.90 31.97 98.13
  C 42.71 62.68 65.92 34.50 98.53 16.57
  Q 107.28 11.77 117.19 8.56
  Q 136.68 2.26 152.10 1.07
  C 230.44 -4.98 296.67 50.63 301.82 129.51
  Q 301.84 129.72 301.94 129.90
  Q 302.04 130.10 302.12 130.28
  Z
  M 44.72 113.72
  Q 39.49 140.70 46.49 166.75
  Q 51.44 185.16 60.59 200.41
  Q 64.77 207.37 70.08 212.57
  A 0.90 0.90 0.0 0 1 70.07 213.86
  L 64.03 219.55
  Q 63.26 220.28 64.00 221.03
  L 76.56 233.77
  A 0.80 0.80 0.0 0 0 77.63 233.82
  L 84.27 228.24
  Q 84.75 227.85 85.23 228.22
  C 99.44 239.26 113.54 247.62 131.25 251.82
  Q 153.40 257.07 171.91 255.70
  C 197.79 254.28 220.25 246.29 239.59 230.67
  Q 240.56 229.89 239.32 229.81
  Q 227.95 229.13 216.84 229.85
  Q 213.92 230.04 211.03 231.28
  Q 196.85 237.32 193.02 238.05
  Q 186.76 239.25 180.83 240.57
  Q 152.76 244.31 125.97 234.57
  C 114.35 230.34 103.40 224.93 94.39 216.72
  C 88.61 211.46 82.84 206.28 78.40 199.87
  Q 72.65 191.56 68.17 182.84
  Q 53.97 155.15 58.09 123.77
  Q 58.44 121.08 58.89 118.09
  Q 60.93 108.83 64.35 99.80
  C 67.69 91.03 72.90 82.17 78.06 74.53
  Q 80.71 70.60 88.12 63.16
  C 93.73 57.54 99.62 51.77 106.20 48.46
  C 111.05 46.02 115.99 43.02 120.74 40.96
  Q 155.63 25.80 193.25 35.92
  Q 204.19 39.53 214.46 44.91
  A 1.07 1.07 0.0 0 0 215.66 44.77
  Q 221.33 39.83 227.69 35.39
  A 0.39 0.39 0.0 0 0 227.68 34.75
  Q 216.66 27.12 203.80 23.49
  C 172.76 12.65 139.44 15.64 109.89 28.91
  C 99.57 33.54 90.09 41.25 81.33 48.55
  Q 77.23 51.97 72.61 57.69
  Q 66.65 65.06 61.74 71.93
  Q 58.01 77.15 54.26 85.38
  Q 50.64 93.29 48.53 99.48
  Q 47.00 103.99 44.72 113.72
  Z
  M 269.29 117.24
  Q 276.14 156.93 254.20 191.06
  Q 250.40 196.98 245.37 202.61
  Q 244.22 203.91 244.25 205.52
  Q 244.44 215.01 244.20 224.45
  Q 244.13 227.08 246.04 225.27
  Q 263.29 209.06 274.67 185.90
  Q 277.10 180.95 279.22 173.59
  Q 281.51 165.58 282.73 159.50
  Q 288.48 130.85 280.23 102.96
  Q 278.62 95.67 276.11 89.89
  Q 272.88 82.48 268.32 74.94
  Q 265.66 70.52 257.17 59.52
  Q 251.92 52.73 245.32 47.01
  A 0.64 0.64 0.0 0 0 244.26 47.50
  L 244.37 65.75
  A 2.07 2.04 24.9 0 0 244.87 67.09
  Q 263.34 88.57 269.29 117.24
  Z
  M 152.90 58.10
  A 0.60 0.60 0.0 0 0 152.30 57.50
  L 132.98 57.50
  A 0.60 0.60 0.0 0 0 132.38 58.10
  L 132.38 113.30
  A 0.60 0.60 0.0 0 0 132.98 113.90
  L 152.30 113.90
  A 0.60 0.60 0.0 0 0 152.90 113.30
  L 152.90 58.10
  Z
  M 197.43 58.26
  A 0.76 0.76 0.0 0 0 196.67 57.50
  L 177.59 57.50
  A 0.76 0.76 0.0 0 0 176.83 58.26
  L 176.83 113.20
  A 0.76 0.76 0.0 0 0 177.59 113.96
  L 196.67 113.96
  A 0.76 0.76 0.0 0 0 197.43 113.20
  L 197.43 58.26
  Z
  M 158.70 150.90
  L 208.19 151.07
  Q 208.71 151.07 208.71 151.58
  L 208.77 161.81
  L 208.78 208.72
  A 0.30 0.30 0.0 0 0 209.07 209.02
  L 232.75 209.22
  A 0.73 0.73 0.0 0 0 233.48 208.49
  L 233.47 137.44
  L 233.53 65.93
  Q 233.53 65.03 232.63 65.03
  L 219.90 65.04
  L 209.44 65.16
  Q 208.92 65.16 208.92 65.68
  L 208.76 116.75
  L 208.69 126.13
  A 0.68 0.68 0.0 0 1 208.01 126.80
  L 158.96 126.75
  L 122.05 127.02
  A 0.52 0.51 86.9 0 1 121.54 126.56
  Q 121.27 124.03 121.25 121.68
  Q 121.12 95.29 121.30 65.59
  Q 121.31 65.01 120.73 65.01
  L 97.02 64.95
  A 0.28 0.27 -90.0 0 0 96.75 65.23
  L 96.75 208.55
  A 0.62 0.62 0.0 0 0 97.37 209.17
  L 120.57 209.18
  A 0.76 0.75 0.0 0 0 121.33 208.43
  L 121.24 151.55
  Q 121.24 151.05 121.74 151.05
  L 158.70 150.90
  Z
  M 85.31 109.07
  A 0.69 0.69 0.0 0 0 84.62 108.38
  L 75.44 108.38
  A 0.69 0.69 0.0 0 0 74.75 109.07
  L 74.75 132.07
  A 0.69 0.69 0.0 0 0 75.44 132.76
  L 84.62 132.76
  A 0.69 0.69 0.0 0 0 85.31 132.07
  L 85.31 109.07
  Z
  M 254.99 108.92
  A 0.53 0.53 0.0 0 0 254.46 108.39
  L 244.78 108.39
  A 0.53 0.53 0.0 0 0 244.25 108.92
  L 244.25 132.18
  A 0.53 0.53 0.0 0 0 244.78 132.71
  L 254.46 132.71
  A 0.53 0.53 0.0 0 0 254.99 132.18
  L 254.99 108.92
  Z
  M 85.29 147.59
  A 0.83 0.83 0.0 0 0 84.46 146.76
  L 75.58 146.76
  A 0.83 0.83 0.0 0 0 74.75 147.59
  L 74.75 169.55
  A 0.83 0.83 0.0 0 0 75.58 170.38
  L 84.46 170.38
  A 0.83 0.83 0.0 0 0 85.29 169.55
  L 85.29 147.59
  Z
  M 254.9710 147.4313
  A 0.70 0.70 0.0 0 0 254.2685 146.7337
  L 244.8886 146.7664
  A 0.70 0.70 0.0 0 0 244.1910 147.4689
  L 244.2690 169.8087
  A 0.70 0.70 0.0 0 0 244.9715 170.5063
  L 254.3514 170.4736
  A 0.70 0.70 0.0 0 0 255.0490 169.7711
  L 254.9710 147.4313
  Z
  M 132.32 178.61
  L 132.37 216.81
  Q 132.37 217.75 133.30 217.74
  L 152.02 217.62
  A 0.86 0.86 0.0 0 0 152.88 216.76
  L 152.78 178.68
  L 152.73 164.26
  A 0.49 0.49 0.0 0 0 152.24 163.78
  L 133.00 163.66
  Q 132.26 163.65 132.27 164.39
  L 132.32 178.61
  Z
  M 176.99 178.50
  L 177.03 216.96
  Q 177.03 217.63 177.70 217.63
  L 197.01 217.63
  A 0.49 0.49 0.0 0 0 197.50 217.14
  L 197.48 178.47
  L 197.46 164.63
  A 0.93 0.93 0.0 0 0 196.52 163.70
  L 177.28 163.79
  A 0.45 0.44 -90.0 0 0 176.84 164.24
  L 176.99 178.50
  Z
  M 17.47 267.83
  C 14.72 279.04 23.11 287.35 34.07 284.62
  Q 37.39 283.79 41.35 279.85
  C 53.02 268.24 64.52 256.71 75.48 245.98
  A 0.94 0.93 44.8 0 0 75.47 244.64
  L 71.01 240.30
  L 65.54 234.61
  L 56.33 225.63
  Q 55.81 225.13 55.41 225.73
  C 54.59 226.94 53.69 228.00 52.58 228.99
  Q 42.96 237.62 34.82 246.35
  C 30.43 251.07 25.24 255.26 20.86 260.11
  Q 17.98 263.30 17.47 267.83
  Z"
/>
<path fill="#fffefe" d="
  M 203.80 23.49
  L 193.25 35.92
  Q 155.63 25.80 120.74 40.96
  C 115.99 43.02 111.05 46.02 106.20 48.46
  C 99.62 51.77 93.73 57.54 88.12 63.16
  Q 80.71 70.60 78.06 74.53
  C 72.90 82.17 67.69 91.03 64.35 99.80
  Q 60.93 108.83 58.89 118.09
  L 44.72 113.72
  Q 47.00 103.99 48.53 99.48
  Q 50.64 93.29 54.26 85.38
  Q 58.01 77.15 61.74 71.93
  Q 66.65 65.06 72.61 57.69
  Q 77.23 51.97 81.33 48.55
  C 90.09 41.25 99.57 33.54 109.89 28.91
  C 139.44 15.64 172.76 12.65 203.80 23.49
  Z"
/>
<path fill="#97bdc9" d="
  M 203.80 23.49
  Q 216.66 27.12 227.68 34.75
  A 0.39 0.39 0.0 0 1 227.69 35.39
  Q 221.33 39.83 215.66 44.77
  A 1.07 1.07 0.0 0 1 214.46 44.91
  Q 204.19 39.53 193.25 35.92
  L 203.80 23.49
  Z"
/>
<path fill="#1e4568" d="
  M 453.04 134.63
  L 453.05 43.38
  A 0.37 0.37 0.0 0 1 453.42 43.01
  L 492.74 43.00
  A 0.37 0.37 0.0 0 1 493.11 43.37
  L 493.11 264.66
  A 0.37 0.37 0.0 0 1 492.74 265.03
  L 453.41 265.03
  A 0.37 0.37 0.0 0 1 453.04 264.66
  L 453.05 169.40
  A 0.37 0.37 0.0 0 0 452.68 169.03
  L 368.82 169.03
  A 0.37 0.37 0.0 0 0 368.45 169.40
  L 368.45 264.66
  A 0.37 0.37 0.0 0 1 368.08 265.03
  L 328.75 265.03
  A 0.37 0.37 0.0 0 1 328.38 264.66
  L 328.38 43.37
  A 0.37 0.37 0.0 0 1 328.75 43.00
  L 368.08 43.00
  A 0.37 0.37 0.0 0 1 368.45 43.37
  L 368.45 134.63
  A 0.37 0.37 0.0 0 0 368.82 135.00
  L 452.67 135.00
  A 0.37 0.37 0.0 0 0 453.04 134.63
  Z"
/>
<path fill="#1e4568" d="
  M 908.20 128.18
  A 0.26 0.26 0.0 0 0 908.70 128.27
  C 916.43 108.11 931.64 94.99 953.77 94.06
  C 970.57 93.35 987.81 97.74 997.58 112.45
  C 1005.13 123.82 1007.24 138.47 1007.24 152.33
  Q 1007.26 208.13 1007.25 264.50
  Q 1007.25 265.03 1006.71 265.03
  L 970.74 265.03
  Q 970.12 265.03 970.12 264.42
  Q 970.13 208.79 970.11 159.26
  C 970.11 147.04 968.24 135.36 956.20 129.49
  C 945.67 124.36 932.13 127.57 923.39 135.02
  C 907.74 148.36 908.10 170.58 908.16 189.15
  Q 908.27 226.60 908.18 264.41
  Q 908.18 265.03 907.56 265.03
  L 871.70 265.03
  Q 871.12 265.03 871.12 264.45
  L 871.12 43.56
  Q 871.12 43.00 871.69 43.00
  L 907.73 43.00
  Q 908.20 43.00 908.20 43.48
  L 908.20 128.18
  Z"
/>
<path fill="#1e4568" d="
  M 1096.86 229.00
  L 1190.66 229.00
  A 0.33 0.33 0.0 0 1 1190.99 229.33
  L 1191.00 264.70
  A 0.33 0.33 0.0 0 1 1190.67 265.03
  L 1054.75 265.03
  A 0.33 0.33 0.0 0 1 1054.42 264.70
  L 1054.41 43.33
  A 0.33 0.33 0.0 0 1 1054.74 43.00
  L 1096.21 43.00
  A 0.33 0.33 0.0 0 1 1096.54 43.33
  L 1096.53 228.67
  A 0.33 0.33 0.0 0 0 1096.86 229.00
  Z"
/>
<path fill="#97bdc9" d="
  M 280.23 102.96
  Q 280.11 103.00 279.98 103.04
  Q 279.74 103.12 279.61 103.34
  Q 275.22 110.64 269.29 117.24
  Q 263.34 88.57 244.87 67.09
  A 2.07 2.04 24.9 0 1 244.37 65.75
  L 244.26 47.50
  A 0.64 0.64 0.0 0 1 245.32 47.01
  Q 251.92 52.73 257.17 59.52
  Q 265.66 70.52 268.32 74.94
  Q 272.88 82.48 276.11 89.89
  Q 278.62 95.67 280.23 102.96
  Z"
/>
<rect fill="#97bdc9" x="132.38" y="57.50" width="20.52" height="56.40" rx="0.60"/>
<rect fill="#97bdc9" x="176.83" y="57.50" width="20.60" height="56.46" rx="0.76"/>
<path fill="#fffefe" d="
  M 158.96 126.75
  C 160.58 127.83 162.40 128.49 163.85 129.65
  Q 168.69 133.53 173.38 137.48
  A 0.47 0.47 0.0 0 1 173.38 138.20
  L 158.70 150.90
  L 121.74 151.05
  Q 121.24 151.05 121.24 151.55
  L 121.33 208.43
  A 0.76 0.75 0.0 0 1 120.57 209.18
  L 97.37 209.17
  A 0.62 0.62 0.0 0 1 96.75 208.55
  L 96.75 65.23
  A 0.28 0.27 -90.0 0 1 97.02 64.95
  L 120.73 65.01
  Q 121.31 65.01 121.30 65.59
  Q 121.12 95.29 121.25 121.68
  Q 121.27 124.03 121.54 126.56
  A 0.52 0.51 86.9 0 0 122.05 127.02
  L 158.96 126.75
  Z"
/>
<path fill="#fffefe" d="
  M 219.90 65.04
  L 220.03 126.89
  Q 220.04 128.72 218.78 127.39
  L 208.76 116.75
  L 208.92 65.68
  Q 208.92 65.16 209.44 65.16
  L 219.90 65.04
  Z"
/>
<path fill="#97bdc9" d="
  M 219.90 65.04
  L 232.63 65.03
  Q 233.53 65.03 233.53 65.93
  L 233.47 137.44
  L 208.77 161.81
  L 208.71 151.58
  Q 208.71 151.07 208.19 151.07
  L 158.70 150.90
  L 173.38 138.20
  A 0.47 0.47 0.0 0 0 173.38 137.48
  Q 168.69 133.53 163.85 129.65
  C 162.40 128.49 160.58 127.83 158.96 126.75
  L 208.01 126.80
  A 0.68 0.68 0.0 0 0 208.69 126.13
  L 208.76 116.75
  L 218.78 127.39
  Q 220.04 128.72 220.03 126.89
  L 219.90 65.04
  Z"
/>
<path fill="#1e4568" d="
  M 639.26 232.99
  C 628.38 258.85 606.74 269.22 579.80 267.91
  C 553.88 266.64 532.45 249.78 530.08 223.14
  C 526.90 187.37 554.01 171.24 584.64 165.54
  Q 609.50 160.91 638.99 162.05
  A 0.72 0.71 -88.4 0 0 639.73 161.34
  Q 639.79 155.68 639.73 149.50
  C 639.59 134.07 629.76 126.62 615.29 124.74
  C 594.85 122.08 571.39 125.68 566.79 149.38
  Q 566.67 150.03 566.01 149.93
  L 535.56 145.11
  Q 535.04 145.03 535.11 144.51
  C 537.30 128.24 547.72 115.42 561.95 107.67
  C 579.32 98.21 601.64 97.12 622.48 98.36
  Q 632.18 98.94 640.88 101.14
  C 656.55 105.11 671.32 117.31 674.20 133.75
  Q 675.81 142.96 675.86 152.99
  Q 676.06 189.74 675.90 227.55
  C 675.84 240.81 677.17 252.25 680.74 264.66
  A 0.29 0.29 0.0 0 1 680.46 265.03
  L 645.98 265.03
  Q 645.41 265.03 645.25 264.49
  Q 640.72 249.23 639.81 233.08
  Q 639.74 231.84 639.26 232.99
  Z
  M 592.97 239.80
  C 607.43 240.82 620.75 237.24 629.76 225.73
  Q 638.99 213.93 639.61 199.65
  Q 639.87 193.75 639.74 183.66
  Q 639.74 183.09 639.17 183.08
  Q 619.43 182.81 601.76 186.30
  C 587.01 189.21 569.16 196.60 568.05 214.19
  C 567.08 229.52 578.09 238.76 592.97 239.80
  Z"
/>
<path fill="#1e4568" d="
  M 804.60 220.15
  C 804.66 211.47 795.76 205.74 788.07 204.23
  Q 772.66 201.20 756.38 198.14
  C 729.88 193.16 706.85 179.87 706.93 149.93
  C 706.97 131.54 716.00 115.58 731.87 106.33
  C 748.82 96.44 774.36 96.33 793.21 100.38
  C 812.76 104.57 827.09 116.24 833.14 135.45
  Q 833.33 136.02 832.73 136.13
  L 800.69 141.96
  Q 800.23 142.04 800.10 141.60
  C 796.73 130.52 787.49 125.26 776.53 124.33
  C 763.75 123.25 743.36 124.22 741.28 139.74
  C 739.58 152.37 754.21 156.86 763.56 158.82
  Q 784.11 163.11 804.76 167.47
  Q 810.70 168.72 819.09 173.24
  Q 837.20 183.01 840.50 203.09
  Q 842.49 215.18 840.09 226.48
  C 836.57 243.02 825.42 253.19 810.03 260.08
  C 791.88 268.20 770.53 269.76 750.95 266.35
  C 727.62 262.29 707.08 250.41 700.33 226.34
  Q 700.22 225.97 700.60 225.91
  L 734.51 220.06
  Q 735.11 219.96 735.33 220.52
  C 743.70 240.91 767.54 242.02 786.03 238.55
  C 795.87 236.71 804.52 231.31 804.60 220.15
  Z"
/>
<path fill="#1e4568" d="
  M 1246.31 188.69
  C 1246.19 198.56 1247.07 211.69 1252.30 220.03
  C 1261.33 234.39 1275.74 239.60 1292.22 237.55
  C 1306.69 235.76 1316.94 227.48 1322.40 213.41
  A 0.63 0.63 0.0 0 1 1323.06 213.02
  L 1355.55 216.90
  Q 1356.16 216.98 1355.98 217.57
  C 1349.24 239.99 1331.99 257.32 1309.96 264.28
  C 1297.77 268.13 1282.70 269.05 1270.16 267.07
  C 1234.06 261.35 1212.61 234.07 1208.52 198.26
  C 1205.17 168.85 1211.27 139.68 1232.22 118.39
  C 1245.28 105.12 1262.65 98.80 1281.62 98.06
  Q 1297.19 97.44 1310.25 101.55
  C 1346.67 113.02 1360.39 153.02 1358.96 187.56
  Q 1358.94 188.03 1358.47 188.03
  L 1246.98 188.03
  Q 1246.32 188.03 1246.31 188.69
  Z
  M 1250.53 146.34
  Q 1247.19 153.74 1246.39 163.41
  Q 1246.35 164.00 1246.94 164.00
  L 1319.73 164.00
  A 0.60 0.60 0.0 0 0 1320.33 163.39
  Q 1319.93 142.58 1305.09 131.02
  C 1300.07 127.10 1293.39 124.52 1287.20 124.18
  Q 1261.18 122.76 1250.53 146.34
  Z"
/>
<path fill="#1e4568" d="
  M 1427.82 137.45
  C 1437.08 115.59 1453.44 97.00 1479.36 98.03
  C 1496.81 98.72 1515.11 107.36 1522.70 123.63
  C 1527.92 134.83 1529.26 147.48 1529.25 159.88
  Q 1529.24 211.89 1529.25 264.48
  Q 1529.25 265.03 1528.70 265.03
  L 1492.74 265.03
  Q 1492.10 265.03 1492.10 264.40
  Q 1492.15 213.17 1492.11 163.48
  C 1492.11 153.37 1489.98 142.99 1481.61 136.35
  C 1468.44 125.91 1451.07 131.78 1440.85 144.10
  C 1432.81 153.82 1430.39 167.67 1430.38 180.55
  Q 1430.34 222.65 1430.38 264.42
  Q 1430.38 265.03 1429.77 265.03
  L 1393.77 265.03
  Q 1393.25 265.03 1393.25 264.52
  L 1393.25 101.50
  Q 1393.25 101.00 1393.75 101.00
  L 1426.55 101.00
  Q 1427.10 101.00 1427.10 101.55
  L 1427.12 137.31
  Q 1427.12 139.11 1427.82 137.45
  Z"
/>
<path fill="#1e4568" d="
  M 1657.60 220.32
  C 1657.75 211.38 1648.74 205.76 1640.85 204.20
  Q 1625.71 201.21 1610.79 198.43
  C 1589.86 194.54 1567.45 185.55 1561.50 162.75
  C 1559.37 154.61 1559.36 144.82 1561.51 136.78
  Q 1566.45 118.39 1582.71 107.64
  C 1596.31 98.63 1615.44 97.11 1632.26 98.35
  C 1657.14 100.19 1678.15 110.17 1686.15 135.45
  Q 1686.33 136.02 1685.74 136.13
  L 1653.56 141.98
  A 0.39 0.39 0.0 0 1 1653.12 141.71
  C 1647.88 123.83 1627.88 122.49 1612.72 124.81
  C 1603.83 126.17 1595.39 130.08 1594.25 139.94
  C 1592.79 152.57 1607.62 157.05 1617.06 158.96
  Q 1636.93 162.99 1656.64 167.28
  C 1675.85 171.47 1690.34 183.54 1693.59 203.76
  Q 1695.67 216.67 1692.56 228.69
  C 1689.09 242.16 1679.95 251.53 1667.28 258.03
  C 1641.70 271.14 1607.26 271.50 1581.36 259.15
  Q 1559.70 248.83 1553.32 226.37
  Q 1553.21 225.97 1553.62 225.90
  L 1587.46 220.07
  Q 1588.08 219.96 1588.33 220.55
  C 1594.47 235.13 1608.00 239.91 1622.90 239.99
  C 1636.00 240.06 1657.31 238.07 1657.60 220.32
  Z"
/>
<path fill="#386581" d="
  M 280.23 102.96
  Q 288.48 130.85 282.73 159.50
  Q 281.51 165.58 279.22 173.59
  Q 277.10 180.95 274.67 185.90
  Q 263.29 209.06 246.04 225.27
  Q 244.13 227.08 244.20 224.45
  Q 244.44 215.01 244.25 205.52
  Q 244.22 203.91 245.37 202.61
  Q 250.40 196.98 254.20 191.06
  Q 276.14 156.93 269.29 117.24
  Q 275.22 110.64 279.61 103.34
  Q 279.74 103.12 279.98 103.04
  Q 280.11 103.00 280.23 102.96
  Z"
/>
<rect fill="#97bdc9" x="74.75" y="108.38" width="10.56" height="24.38" rx="0.69"/>
<rect fill="#97bdc9" x="244.25" y="108.39" width="10.74" height="24.32" rx="0.53"/>
<path fill="#97bdc9" d="
  M 58.89 118.09
  Q 58.44 121.08 58.09 123.77
  Q 53.97 155.15 68.17 182.84
  Q 72.65 191.56 78.40 199.87
  C 82.84 206.28 88.61 211.46 94.39 216.72
  C 103.40 224.93 114.35 230.34 125.97 234.57
  Q 152.76 244.31 180.83 240.57
  Q 177.50 248.59 171.91 255.70
  Q 153.40 257.07 131.25 251.82
  C 113.54 247.62 99.44 239.26 85.23 228.22
  Q 84.75 227.85 84.27 228.24
  L 77.63 233.82
  A 0.80 0.80 0.0 0 1 76.56 233.77
  L 64.00 221.03
  Q 63.26 220.28 64.03 219.55
  L 70.07 213.86
  A 0.90 0.90 0.0 0 0 70.08 212.57
  Q 64.77 207.37 60.59 200.41
  Q 51.44 185.16 46.49 166.75
  Q 39.49 140.70 44.72 113.72
  L 58.89 118.09
  Z"
/>
<path fill="#012c4a" d="
  M 302.12 130.28
  Q 302.34 130.20 302.58 130.53
  Q 302.76 130.79 302.76 131.10
  Q 302.67 138.45 303.25 146.09
  C 303.87 154.19 303.01 162.34 302.26 170.26
  C 299.25 202.33 279.50 232.10 254.17 251.25
  Q 198.44 293.38 129.79 277.48
  Q 117.13 274.55 95.03 265.43
  C 93.21 264.68 91.44 265.65 90.16 266.94
  Q 76.98 280.15 60.81 295.32
  Q 52.54 303.09 50.05 304.72
  C 38.53 312.27 23.29 313.32 13.34 302.43
  Q 10.27 299.08 7.85 294.26
  Q 7.12 292.80 5.97 291.56
  Q 4.70 290.20 5.04 289.15
  Q 11.62 294.98 14.52 296.75
  C 26.69 304.20 41.37 302.03 51.39 292.06
  Q 69.62 273.91 89.23 254.21
  Q 90.20 253.24 91.33 252.49
  Q 91.74 252.21 92.17 252.47
  Q 117.54 267.67 145.27 271.15
  C 184.08 276.01 221.34 266.25 251.76 241.68
  Q 256.36 237.96 267.17 226.65
  C 276.74 216.63 284.13 203.64 290.02 190.63
  Q 296.36 176.60 298.80 161.88
  Q 301.12 147.90 301.53 131.93
  Q 301.54 131.33 301.83 130.80
  L 302.12 130.28
  Z"
/>
<path fill="#fffefe" d="
  M 233.47 137.44
  L 233.48 208.49
  A 0.73 0.73 0.0 0 1 232.75 209.22
  L 209.07 209.02
  A 0.30 0.30 0.0 0 1 208.78 208.72
  L 208.77 161.81
  L 233.47 137.44
  Z"
/>
<rect fill="#386581" x="74.75" y="146.76" width="10.54" height="23.62" rx="0.83"/>
<rect fill="#386581" x="-5.39" y="-11.87" transform="translate(249.62,158.62) rotate(-0.2)" width="10.78" height="23.74" rx="0.70"/>
<path fill="#386581" d="
  M 152.78 178.68
  L 132.32 178.61
  L 132.27 164.39
  Q 132.26 163.65 133.00 163.66
  L 152.24 163.78
  A 0.49 0.49 0.0 0 1 152.73 164.26
  L 152.78 178.68
  Z"
/>
<path fill="#386581" d="
  M 197.48 178.47
  L 176.99 178.50
  L 176.84 164.24
  A 0.45 0.44 90.0 0 1 177.28 163.79
  L 196.52 163.70
  A 0.93 0.93 0.0 0 1 197.46 164.63
  L 197.48 178.47
  Z"
/>
<path fill="#97bdc9" d="
  M 152.78 178.68
  L 152.88 216.76
  A 0.86 0.86 0.0 0 1 152.02 217.62
  L 133.30 217.74
  Q 132.37 217.75 132.37 216.81
  L 132.32 178.61
  L 152.78 178.68
  Z"
/>
<path fill="#97bdc9" d="
  M 176.99 178.50
  L 197.48 178.47
  L 197.50 217.14
  A 0.49 0.49 0.0 0 1 197.01 217.63
  L 177.70 217.63
  Q 177.03 217.63 177.03 216.96
  L 176.99 178.50
  Z"
/>
<path fill="#fffefe" d="
  M 65.54 234.61
  Q 54.76 245.55 43.81 256.13
  C 39.09 260.70 34.73 265.47 30.22 270.21
  Q 25.94 274.72 19.51 272.18
  L 17.47 267.83
  Q 17.98 263.30 20.86 260.11
  C 25.24 255.26 30.43 251.07 34.82 246.35
  Q 42.96 237.62 52.58 228.99
  C 53.69 228.00 54.59 226.94 55.41 225.73
  Q 55.81 225.13 56.33 225.63
  L 65.54 234.61
  Z"
/>
<path fill="#386581" d="
  M 171.91 255.70
  Q 177.50 248.59 180.83 240.57
  Q 186.76 239.25 193.02 238.05
  Q 196.85 237.32 211.03 231.28
  Q 213.92 230.04 216.84 229.85
  Q 227.95 229.13 239.32 229.81
  Q 240.56 229.89 239.59 230.67
  C 220.25 246.29 197.79 254.28 171.91 255.70
  Z"
/>
<path fill="#97bdc9" d="
  M 65.54 234.61
  L 71.01 240.30
  Q 67.07 244.10 63.15 247.75
  Q 59.14 251.50 55.39 255.30
  Q 44.68 266.15 33.57 276.57
  Q 31.68 278.34 29.51 278.48
  Q 21.74 279.00 19.51 272.18
  Q 25.94 274.72 30.22 270.21
  C 34.73 265.47 39.09 260.70 43.81 256.13
  Q 54.76 245.55 65.54 234.61
  Z"
/>
<path fill="#386581" d="
  M 71.01 240.30
  L 75.47 244.64
  A 0.94 0.93 44.8 0 1 75.48 245.98
  C 64.52 256.71 53.02 268.24 41.35 279.85
  Q 37.39 283.79 34.07 284.62
  C 23.11 287.35 14.72 279.04 17.47 267.83
  L 19.51 272.18
  Q 21.74 279.00 29.51 278.48
  Q 31.68 278.34 33.57 276.57
  Q 44.68 266.15 55.39 255.30
  Q 59.14 251.50 63.15 247.75
  Q 67.07 244.10 71.01 240.30
  Z"
/>
</svg>
